<svg id="instructions" xmlns="http://www.w3.org/2000/svg" width="250" height="250" viewBox="0 0 250 250">
  <defs>
    <style>
      .cls-1 {
        fill: #fff;
      }

      .cls-1, .cls-2 {
        stroke: #000;
        stroke-width: 5px;
        fill-rule: evenodd;
      }

      .cls-2 {
        fill: none;
      }
    </style>
  </defs>
  <path class="cls-1" d="M65.924,101.194h10.94v33.914h8.752l-14.222,16.41-14.222-16.41h8.752V101.194Z"/>
  <path class="cls-1" d="M173.136,101.194h10.94v33.914h8.752l-14.222,16.41-14.222-16.41h8.752V101.194Z"/>
  <g id="Stud">
    <path class="cls-1" d="M57.678,171.939v30.907c18.888,16.026,38.589,28.918,57.476,44.944,27.187-11.161,53.561-19.188,80.748-30.349V186.534L138.38,139.315Z"/>
    <path class="cls-2" d="M57.678,171.939l59.238,44.644L195.9,187.392"/>
    <path class="cls-1" d="M126.79,162.5c16.832,0,30.478,7.88,30.478,17.6s-13.646,17.6-30.478,17.6-30.478-7.88-30.478-17.6S109.957,162.5,126.79,162.5Z"/>
    <path id="Line_1" data-name="Line 1" class="cls-2" d="M96.371,160.482h0.74v19.981h-0.74V160.482Z"/>
    <path id="Line_2" data-name="Line 2" class="cls-2" d="M157.268,180.524h-0.859v-23.18h0.859v23.18Z"/>
    <path class="cls-1" d="M126.79,142.749c16.832,0,30.478,7.879,30.478,17.6s-13.646,17.6-30.478,17.6-30.478-7.88-30.478-17.6S109.957,142.749,126.79,142.749Z"/>
  </g>
  <g id="Stud-2" data-name="Stud">
    <path class="cls-1" d="M57.678,35.776V66.684c18.888,16.026,38.589,29.425,57.476,45.451,27.187-11.161,53.561-19.695,80.748-30.856V50.371L138.38,3.152Z"/>
    <path class="cls-2" d="M57.678,35.776L116.916,80.42,195.9,51.23"/>
    <path class="cls-1" d="M126.79,26.332c16.832,0,30.478,7.88,30.478,17.6s-13.646,17.6-30.478,17.6-30.478-7.88-30.478-17.6S109.957,26.332,126.79,26.332Z"/>
    <path id="Line_1-2" data-name="Line 1" class="cls-2" d="M96.371,24.319h0.74V44.3h-0.74V24.319Z"/>
    <path id="Line_2-2" data-name="Line 2" class="cls-2" d="M157.268,44.362h-0.859V21.181h0.859v23.18Z"/>
    <path class="cls-1" d="M126.79,6.586c16.832,0,30.478,7.88,30.478,17.6s-13.646,17.6-30.478,17.6-30.478-7.88-30.478-17.6S109.957,6.586,126.79,6.586Z"/>
  </g>
</svg>
